<?xml version="1.0" standalone="no"?>
<!DOCTYPE svg PUBLIC "-//W3C//DTD SVG 20010904//EN"
 "http://www.w3.org/TR/2001/REC-SVG-20010904/DTD/svg10.dtd">
<svg version="1.0" xmlns="http://www.w3.org/2000/svg"
 width="1000.000000pt" height="1000.000000pt" viewBox="0 0 1000.000000 1000.000000"
 preserveAspectRatio="xMidYMid meet">
<metadata>
Created by potrace 1.11, written by Peter Selinger 2001-2013
</metadata>
<g transform="translate(0.000000,1000.000000) scale(0.100000,-0.100000)"
fill="#000000" stroke="none">
<path d="M3952 9985 c-18 -8 -33 -14 -35 -14 -1 0 -9 -2 -17 -5 -8 -3 -51 -17
-95 -31 -115 -37 -384 -137 -505 -188 -14 -6 -27 -11 -30 -12 -13 -4 -93 -39
-175 -75 -65 -29 -322 -152 -335 -160 -8 -5 -31 -17 -50 -25 -19 -9 -37 -19
-40 -23 -3 -4 -27 -18 -55 -32 -27 -13 -52 -27 -55 -30 -3 -3 -21 -13 -40 -24
-60 -32 -97 -54 -141 -83 -23 -15 -49 -33 -58 -38 -75 -48 -107 -70 -119 -82
-7 -7 -17 -13 -22 -13 -5 0 -15 -6 -22 -13 -7 -7 -31 -26 -53 -42 -22 -17 -45
-34 -52 -40 -6 -5 -26 -21 -44 -35 -18 -14 -55 -44 -83 -67 -27 -24 -54 -43
-58 -43 -5 0 -6 -4 -3 -10 3 -5 1 -10 -5 -10 -11 0 -185 -171 -263 -260 -73
-82 -247 -320 -247 -336 0 -3 -8 -18 -18 -32 -47 -67 -172 -333 -172 -366 0
-9 -4 -16 -8 -16 -5 0 -9 -6 -10 -12 -1 -15 -10 -53 -12 -53 -1 0 -3 -7 -6
-15 -2 -8 -11 -40 -19 -70 -25 -86 -30 -106 -45 -190 -23 -128 -28 -173 -35
-315 -4 -66 -9 -123 -11 -127 -2 -4 0 -9 6 -13 7 -4 7 -12 0 -24 -5 -10 -7
-20 -5 -23 2 -2 7 -57 10 -122 4 -64 9 -127 11 -139 3 -12 7 -40 9 -62 2 -22
6 -56 10 -75 13 -81 18 -106 22 -125 3 -11 7 -33 10 -50 2 -16 7 -37 10 -45 3
-8 7 -24 8 -35 7 -50 58 -234 102 -365 82 -246 160 -440 279 -688 35 -74 64
-137 64 -142 0 -5 3 -10 8 -12 4 -1 31 -52 61 -113 30 -60 60 -117 66 -125 7
-8 25 -40 41 -70 15 -30 36 -66 45 -80 9 -14 25 -41 36 -60 11 -19 30 -53 44
-75 13 -22 24 -42 23 -45 0 -3 8 -14 18 -24 10 -11 18 -23 18 -28 0 -4 16 -34
36 -65 69 -109 127 -198 155 -240 16 -23 29 -46 29 -52 0 -6 5 -11 10 -11 6 0
10 -7 10 -15 0 -7 6 -18 12 -22 7 -4 18 -16 23 -25 26 -45 150 -223 157 -226
4 -2 8 -8 8 -13 0 -8 198 -285 284 -397 23 -29 50 -66 61 -82 17 -25 195 -258
217 -285 5 -5 18 -21 29 -35 12 -14 42 -52 67 -85 25 -33 54 -67 64 -76 10 -9
18 -19 18 -23 0 -6 115 -150 145 -182 5 -6 24 -28 40 -49 17 -21 35 -43 40
-49 21 -24 72 -84 105 -126 19 -24 42 -51 50 -60 13 -13 79 -92 115 -137 6 -7
21 -25 35 -41 14 -15 45 -52 70 -81 25 -30 52 -61 61 -70 8 -9 40 -45 70 -80
30 -35 68 -78 84 -96 27 -29 94 -105 147 -168 11 -12 54 -60 96 -106 42 -46
85 -93 95 -105 34 -39 132 -148 162 -181 16 -17 54 -58 84 -91 29 -32 97 -106
150 -163 53 -57 99 -112 103 -122 4 -11 10 -61 12 -112 3 -50 6 -92 7 -92 2 0
7 -61 8 -107 1 -21 5 -38 11 -38 5 0 7 6 5 12 -2 7 -7 45 -9 83 -11 154 -17
231 -21 241 -5 16 123 18 142 3 9 -9 13 -8 13 0 0 8 27 11 92 9 l91 -3 -2 -70
c-1 -38 -3 -87 -4 -108 -1 -20 1 -37 4 -37 4 0 8 37 9 82 3 156 -7 138 76 138
l73 0 -9 -29 c-4 -15 -4 -35 1 -42 6 -10 9 -3 10 21 1 51 5 59 109 170 137
148 158 171 225 245 33 37 80 88 105 115 25 26 66 72 91 101 26 30 62 70 80
90 57 60 206 230 260 293 13 16 35 41 49 55 14 15 63 72 110 126 47 55 89 105
95 111 5 6 28 32 50 59 22 26 50 58 62 71 12 12 19 25 16 28 -4 3 -2 6 4 6 6
0 36 31 67 70 31 38 67 81 81 96 14 15 25 30 25 33 0 3 15 22 33 41 18 19 52
60 77 90 24 30 50 62 57 70 7 8 45 56 85 105 39 50 74 92 78 95 4 3 11 12 16
21 5 9 24 34 41 55 18 21 91 116 162 209 72 94 134 175 139 180 4 6 9 13 10
17 2 4 12 18 22 30 30 35 180 239 180 244 0 5 15 24 43 55 9 10 17 22 17 25 0
5 48 77 73 109 20 26 162 232 171 250 10 17 69 110 171 265 52 79 221 368 307
525 62 112 249 494 263 535 1 3 8 19 15 35 7 17 14 32 15 35 1 3 9 22 18 44 9
21 17 40 17 42 0 2 8 23 19 47 10 23 29 71 42 107 12 36 27 76 32 90 6 14 11
30 12 35 2 6 12 37 23 70 29 86 85 283 84 292 -1 2 4 17 9 35 5 18 11 44 14
58 3 14 7 36 10 50 11 46 14 65 19 100 3 19 8 49 10 65 27 164 31 224 30 455
0 255 -4 300 -40 480 -30 150 -102 372 -149 463 -8 16 -15 35 -15 42 0 7 -3
15 -7 17 -5 2 -24 35 -43 73 -19 39 -43 79 -52 89 -10 11 -18 24 -18 28 0 11
-112 176 -137 203 -11 11 -24 28 -29 37 -29 51 -249 280 -363 378 -35 30 -69
60 -75 65 -6 6 -49 40 -96 75 -47 36 -86 68 -88 73 -2 4 -10 7 -18 7 -8 0 -14
5 -14 10 0 6 -7 10 -15 10 -7 0 -19 8 -24 18 -6 9 -11 13 -11 7 0 -6 -3 -6 -8
1 -7 11 -127 94 -136 94 -3 0 -25 14 -49 30 -25 17 -50 30 -56 30 -6 0 -11 5
-11 10 0 6 -4 10 -9 10 -5 0 -44 20 -85 45 -42 25 -80 45 -84 45 -4 0 -24 11
-43 25 -20 13 -39 22 -41 19 -3 -2 -11 2 -18 11 -7 8 -16 15 -20 15 -4 0 -68
29 -141 64 -74 35 -195 89 -269 121 -74 31 -154 66 -177 76 -24 10 -46 19 -50
19 -4 0 -54 19 -112 41 -58 23 -110 42 -116 44 -5 1 -17 5 -25 8 -47 18 -137
49 -150 52 -8 2 -57 18 -109 35 l-93 30 -1007 0 c-846 -1 -1011 -3 -1039 -15z"/>
<path d="M4899 944 c-1 -10 2 -67 6 -124 1 -19 3 -66 4 -103 1 -43 5 -66 11
-62 6 4 8 9 6 13 -2 4 -7 68 -11 142 -4 74 -9 137 -11 139 -2 2 -4 0 -5 -5z"/>
<path d="M5233 875 c-1 -19 1 -35 5 -35 4 0 8 16 8 35 2 46 -10 46 -13 0z"/>
<path d="M5226 768 c-11 -86 -14 -138 -7 -133 4 2 9 32 10 65 1 34 6 72 11 86
6 14 6 24 0 24 -5 0 -11 -19 -14 -42z"/>
<path d="M5076 762 c-2 -4 -1 -14 3 -21 6 -9 10 -7 14 8 5 20 -7 29 -17 13z"/>
<path d="M5075 650 c2 -31 15 -37 15 -7 0 15 -4 27 -8 27 -5 0 -8 -9 -7 -20z"/>
<path d="M4779 634 c-1 -5 -1 -12 0 -16 0 -4 1 -30 2 -58 1 -28 5 -53 9 -55 7
-5 1 126 -6 134 -2 2 -5 0 -5 -5z"/>
<path d="M4912 605 c1 -14 6 -25 10 -25 4 0 7 11 6 25 -1 14 -6 25 -10 25 -4
0 -7 -11 -6 -25z"/>
<path d="M5210 588 c0 -18 -3 -58 -6 -88 -4 -30 -4 -53 -1 -50 3 3 8 37 12 75
4 39 9 73 11 77 3 4 0 9 -6 13 -6 4 -10 -7 -10 -27z"/>
<path d="M5073 578 c-2 -27 0 -29 7 -13 11 26 12 45 2 45 -4 0 -8 -15 -9 -32z"/>
<path d="M4917 557 c-3 -8 -1 -20 4 -28 6 -10 9 -7 9 14 0 29 -5 35 -13 14z"/>
<path d="M5070 510 c0 -16 2 -30 4 -30 2 0 6 14 8 30 3 17 1 30 -4 30 -4 0 -8
-13 -8 -30z"/>
<path d="M4920 475 c0 -19 4 -35 8 -35 4 0 6 16 4 35 -2 19 -6 35 -8 35 -2 0
-4 -16 -4 -35z"/>
<path d="M4794 440 c3 -30 8 -66 10 -80 2 -14 7 -52 11 -85 4 -32 8 -67 10
-77 2 -9 7 -43 10 -75 4 -32 8 -67 10 -78 1 -11 3 -26 4 -32 1 -10 38 -13 151
-13 113 0 150 3 151 13 1 6 3 21 4 32 2 11 6 47 9 80 4 33 9 71 11 85 9 49 18
125 19 154 1 23 -4 31 -24 36 -14 4 -34 4 -45 0 -24 -8 -57 -1 -49 11 8 14 -6
10 -22 -5 -10 -11 -22 -12 -44 -6 -17 5 -30 5 -30 0 0 -13 -32 0 -48 19 -8 9
-11 11 -7 4 8 -17 -26 -32 -50 -23 -11 4 -28 4 -37 -1 -21 -11 -29 0 -35 50
-8 58 -16 51 -9 -9z"/>
<path d="M5067 456 c-4 -10 -5 -21 -2 -24 9 -9 17 6 13 25 -3 17 -4 17 -11 -1z"/>
<path d="M5194 429 c-3 -6 -2 -15 3 -20 5 -5 9 -1 10 11 2 22 -2 25 -13 9z"/>
</g>
</svg>
